<?xml version="1.0" encoding="UTF-8" standalone="no"?>
<svg
   xmlns:dc="http://purl.org/dc/elements/1.1/"
   xmlns:cc="http://creativecommons.org/ns#"
   xmlns:rdf="http://www.w3.org/1999/02/22-rdf-syntax-ns#"
   xmlns:svg="http://www.w3.org/2000/svg"
   xmlns="http://www.w3.org/2000/svg"
   id="svg3951"
   version="1.1"
   viewBox="0 0 11.49301 11.209516"
   height="11.209516mm"
   width="11.49301mm">
  <defs
     id="defs3945" />
  <metadata
     id="metadata3948">
    <rdf:RDF>
      <cc:Work
         rdf:about="">
        <dc:format>image/svg+xml</dc:format>
        <dc:type
           rdf:resource="http://purl.org/dc/dcmitype/StillImage" />
        <dc:title></dc:title>
      </cc:Work>
    </rdf:RDF>
  </metadata>
  <g
     transform="translate(-72.116667,-86.532147)"
     id="layer1">
    <path
       id="path3741"
       d="m 77.863077,86.532147 c -3.17362,0 -5.74641,2.572798 -5.74641,5.746419 0,2.538345 1.64675,4.69222 3.93016,5.452897 0.28663,0.05237 0.39274,-0.125402 0.39274,-0.276987 0,-0.136426 -0.005,-0.49747 -0.008,-0.977029 -1.59852,0.347268 -1.93614,-0.770322 -1.93614,-0.770322 -0.26044,-0.664213 -0.63803,-0.840602 -0.63803,-0.840602 -0.52227,-0.356913 0.04,-0.350023 0.04,-0.350023 0.57602,0.04134 0.87918,0.592557 0.87918,0.592557 0.51263,0.87781 1.34635,0.624251 1.67294,0.478177 0.0524,-0.372068 0.20119,-0.625627 0.36518,-0.768943 -1.27606,-0.144695 -2.61827,-0.638034 -2.61827,-2.840137 0,-0.627009 0.22462,-1.139638 0.59256,-1.542027 -0.0593,-0.146071 -0.25632,-0.72898 0.0551,-1.521354 0,0 0.48369,-0.15434 1.58061,0.589802 0.45888,-0.128157 0.95084,-0.191548 1.43867,-0.192927 0.48783,0.0014 0.97979,0.06477 1.43867,0.192927 1.09692,-0.744142 1.57923,-0.589802 1.57923,-0.589802 0.31282,0.792374 0.11576,1.375283 0.0565,1.521354 0.36932,0.402389 0.59118,0.915018 0.59118,1.542027 0,2.207617 -1.34358,2.692686 -2.62378,2.836002 0.2067,0.176389 0.38998,0.527788 0.38998,1.063844 0,0.767567 -0.007,1.387687 -0.007,1.576476 0,0.152965 0.10336,0.332109 0.3955,0.276987 2.28065,-0.762056 3.92603,-2.914552 3.92603,-5.452897 0,-3.173621 -2.5728,-5.746419 -5.74642,-5.746419"
       style="fill:#191714;fill-opacity:1;fill-rule:evenodd;stroke:none;stroke-width:0.35277778" />
  </g>
</svg>
